<?xml version="1.0" encoding="UTF-8"?>
<svg xmlns="http://www.w3.org/2000/svg" xmlns:xlink="http://www.w3.org/1999/xlink" width="18pt" height="18pt" viewBox="0 0 18 18" version="1.1">
<g id="surface1">
<path style=" stroke:none;fill-rule:evenodd;fill:rgb(9.803922%,9.019608%,9.019608%);fill-opacity:1;" d="M 8.972656 0.429688 C 4.125 0.429688 0.191406 4.363281 0.191406 9.210938 C 0.191406 13.089844 2.722656 16.375 6.171875 17.5625 C 6.601562 17.617188 6.765625 17.347656 6.765625 17.128906 L 6.765625 15.621094 C 4.339844 16.160156 3.800781 14.4375 3.800781 14.4375 C 3.425781 13.414062 2.832031 13.144531 2.832031 13.144531 C 2.023438 12.605469 2.886719 12.605469 2.886719 12.605469 C 3.746094 12.660156 4.230469 13.523438 4.230469 13.523438 C 5.039062 14.867188 6.28125 14.492188 6.765625 14.277344 C 6.816406 13.683594 7.085938 13.304688 7.300781 13.089844 C 5.363281 12.875 3.316406 12.121094 3.316406 8.726562 C 3.316406 7.757812 3.640625 7.003906 4.230469 6.355469 C 4.125 6.140625 3.855469 5.226562 4.339844 4.039062 C 4.339844 4.039062 5.09375 3.824219 6.765625 4.957031 C 7.464844 4.742188 8.21875 4.6875 8.972656 4.6875 C 9.726562 4.6875 10.480469 4.792969 11.179688 4.957031 C 12.851562 3.824219 13.605469 4.039062 13.605469 4.039062 C 14.089844 5.226562 13.765625 6.140625 13.710938 6.355469 C 14.304688 7.003906 14.632812 7.851562 14.628906 8.726562 C 14.628906 12.121094 12.582031 12.820312 10.640625 13.035156 C 10.964844 13.304688 11.234375 13.84375 11.234375 14.652344 L 11.234375 17.078125 C 11.234375 17.292969 11.394531 17.5625 11.824219 17.507812 C 15.328125 16.324219 17.804688 13.035156 17.804688 9.160156 C 17.753906 4.363281 13.820312 0.433594 8.972656 0.433594 Z M 8.972656 0.429688 "/>
</g>
</svg>
